<?xml version="1.0" encoding="utf-8"?>
<!-- Generator: Adobe Illustrator 24.0.0, SVG Export Plug-In . SVG Version: 6.00 Build 0)  -->
<svg version="1.1" id="Layer_1" xmlns="http://www.w3.org/2000/svg" xmlns:xlink="http://www.w3.org/1999/xlink" x="0px" y="0px"
	 viewBox="0 0 900 350" style="enable-background:new 0 0 900 350;" xml:space="preserve">
<style type="text/css">
	.st0{fill:#FFFFFF;}
</style>
<g>
	<path class="st0" d="M539.1,118c23,0,46,0.1,69-0.1c3.3,0,4.5,0.6,4.5,4.2c-0.1,12,0,12-11.7,12c-42.3,0-84.6,0-126.9,0
		c-8.3,0-10.1,1.7-10.1,9.7c0,22.8,0,45.6,0,68.4c0,7.6,1.5,9.1,9,9.1c9.2,0,18.3,0.1,27.5,0c6-0.1,7.8-1.9,7.8-7.8
		c0.1-12.5,0.1-25,0-37.4c0-5.9-2.1-7.9-8.2-8c-8.5-0.1-17-0.1-25.5,0c-2.9,0.1-4.3-0.4-4-3.7c0.4-4-1.3-9.2,0.7-11.6
		c2.1-2.6,7.5-0.7,11.5-0.8c6.2-0.1,12.3-0.1,18.5,0c14.1,0.2,23.2,9.2,23.4,23.1c0.2,13.1,0.2,26.3,0,39.4
		c-0.2,14.2-9.5,23.1-23.8,23.2c-9.8,0-19.7,0-29.5,0c-14-0.1-23.4-8.9-23.6-22.9c-0.2-24.6-0.3-49.3,0-73.9
		c0.2-14.2,9.7-22.9,24-22.9C494.1,118,516.6,118,539.1,118z"/>
	<path class="st0" d="M722,177.9c0,12.3,0.1,24.6,0,37c-0.1,13.5-9.3,22.8-23,22.9c-10.2,0.1-20.3,0.1-30.5,0
		c-14-0.1-23-9.3-23-23.3c0-13.3,0-26.6,0-40c0-12.6,8.6-21.8,21.3-22.3c9.6-0.4,19.3-0.1,29-0.2c2.3,0,3.1,0.7,3.2,3.1
		c0.8,13.1,0.9,13.1-12.2,13.1c-5.7,0-11.3-0.1-17,0c-6.2,0.1-8.1,2-8.2,8c0,12.7,0,25.3,0,38c0,5.4,1.8,7.3,7.1,7.4
		c10,0.2,20,0.2,30,0c4.8-0.1,7-2.4,7-7.2c0.1-24.3,0.1-48.6,0-72.9c0-5.2-2.3-7.2-7.9-7.3c-15.8,0-31.7-0.1-47.5,0.1
		c-3.8,0.1-4.7-1.1-4.6-4.7c0.2-11.5,0-11.5,11.3-11.5c13.8,0,27.7,0,41.5,0c14.3,0,23.4,9.1,23.5,23.3
		C722.1,153.5,722,165.7,722,177.9z"/>
	<path class="st0" d="M611.1,201.4c0,10.8-0.1,21.6,0.1,32.5c0,3-0.8,4-3.9,4c-12.3,0.2-12.3,0.3-12.3-12c0-17.5,0-35,0-52.4
		c0-6.2-1.9-8.1-7.9-8.2c-9.5-0.1-19-0.1-28.5,0c-5.7,0-7.7,2.1-7.7,7.9c0,13.3-0.1,26.6,0,40c0,6.3,2.5,8.7,8.8,8.7
		c8.3,0,16.7,0.1,25,0c2.8,0,3.7,0.8,3.8,3.6c0.4,12.5,0.5,12.5-11.8,12.5c-6.5,0-13,0.1-19.5,0c-11.8-0.2-21.8-8.9-22.2-20.7
		c-0.6-16.1-0.5-32.3-0.1-48.4c0.3-10.8,9.7-19.4,20.8-19.7c11.5-0.3,23-0.4,34.5,0c12,0.4,20.8,9.9,20.9,21.8
		C611.1,181,611.1,191.2,611.1,201.4z"/>
	<path class="st0" d="M437.2,195c0,13-0.1,26,0.1,38.9c0,3-0.8,3.9-3.9,3.9c-16.8-0.2-33.6,0-50.5-0.1c-12.7-0.1-22.3-9.1-22.6-21.8
		c-0.4-20.3-0.1-40.6-0.1-60.9c0-2.4,0.7-3.1,3.1-3.2c13.3-0.7,13.3-0.8,13.3,12.4c0,16.1,0,32.3,0,48.4c0,7.2,1.7,8.8,8.9,8.8
		c10.3,0,20.7-0.1,31,0.1c3.6,0.1,4.8-0.6,4.7-4.5c-0.2-20.3,0-40.6-0.2-60.9c0-3.5,0.9-4.4,4.4-4.3c11.9,0.2,11.9,0,11.9,11.8
		C437.2,174,437.2,184.5,437.2,195z"/>
	<path class="st0" d="M198.6,194.3c0-12.8,0.1-25.6-0.1-38.4c0-2.9,0.5-4,3.8-3.9c16.7,0.2,33.3-0.1,50,0.1
		c14,0.2,22.9,9.3,22.9,23.3c0,19.1-0.1,38.3,0.1,57.4c0,3.5-0.9,4.4-4.4,4.3c-11.9-0.1-11.9,0-11.9-11.7c0-16.3,0-32.6,0-48.9
		c0-6.3-2-8.3-8.4-8.3c-10.5-0.1-21,0.1-31.5-0.1c-3.6-0.1-4.4,1.1-4.3,4.5c0.2,20,0,39.9,0.2,59.9c0,3.7-0.8,4.8-4.6,4.7
		c-11.8-0.2-11.8,0-11.8-11.9C198.6,214.9,198.6,204.6,198.6,194.3z"/>
	<path class="st0" d="M282.6,194.9c0-6.8,0-13.6,0-20.5c0.1-12.3,8.6-21.8,20.9-22.2c15-0.5,30-0.1,45-0.3c2.2,0,3.1,0.6,2.8,2.8
		c0,0.3,0,0.7,0,1c0.2,12.4,0.2,12.4-12.1,12.4c-10.2,0-20.3,0-30.5,0c-8.2,0-9.7,1.5-9.7,9.4c0,11.8,0,23.6,0,35.4
		c0,7,1.5,8.4,8.6,8.4c13.2,0,26.3,0.1,39.5-0.1c3.6-0.1,4.4,1,4.4,4.5c-0.1,11.9,0,11.9-11.8,11.9c-11.2,0-22.3,0-33.5,0
		c-14.2-0.1-23.4-9.2-23.5-23.4C282.5,207.9,282.6,201.4,282.6,194.9z"/>
	<path class="st0" d="M637.1,194.8c0,13-0.1,25.9,0.1,38.9c0,2.9-0.6,4-3.8,4.1c-12.4,0.2-12.3,0.3-12.3-11.9
		c0-23.1,0.1-46.2-0.1-69.3c0-3.6,0.6-4.9,4.6-4.8c11.6,0.2,11.6,0,11.6,11.7C637.1,173.9,637.1,184.4,637.1,194.8z"/>
	<path class="st0" d="M189.2,195c0,12.6-0.1,25.3,0.1,37.9c0,3-0.4,4.3-3.9,4.3c-12.3-0.1-12.3,0.1-12.3-12.3
		c0-22.8,0.1-45.6-0.1-68.4c0-3.4,0.3-4.9,4.4-4.8c11.8,0.3,11.8,0,11.8,11.8C189.2,174,189.2,184.5,189.2,195z"/>
	<path class="st0" d="M181.3,117.9c7.9,0,7.9,0,7.9,7.3c0,9.2,0,9.2-10,9.2c-6.1,0-6.1,0-6.1-10.6
		C173.1,117.9,173.1,117.9,181.3,117.9z"/>
	<path class="st0" d="M637.1,126.4c0,8,0,8-7.7,8c-8.4,0-8.4,0-8.4-8.3c0-8.2,0-8.2,8-8.2C637.1,117.9,637.1,117.9,637.1,126.4z"/>
</g>
</svg>
